<svg width="17" height="17" viewBox="0 0 17 17" fill="none" xmlns="http://www.w3.org/2000/svg">
<path d="M15.4746 5.53549C15.4278 5.48204 15.3702 5.43918 15.3055 5.40976C15.2409 5.38034 15.1707 5.36503 15.0996 5.36487H12.3265L8.97464 1.53549C8.92772 1.48229 8.87002 1.43968 8.80536 1.41049C8.74071 1.38131 8.67058 1.36621 8.59964 1.36621C8.52871 1.36621 8.45858 1.38131 8.39392 1.41049C8.32927 1.43968 8.27156 1.48229 8.22464 1.53549L4.87277 5.36487H2.09964C2.02838 5.36486 1.95795 5.38009 1.89305 5.40953C1.82816 5.43897 1.77031 5.48194 1.72337 5.53556C1.67644 5.58918 1.64151 5.65221 1.62093 5.72043C1.60034 5.78865 1.59458 5.86049 1.60402 5.93112L2.54589 12.9974C2.57875 13.2372 2.69716 13.457 2.87931 13.6165C3.06146 13.7759 3.29509 13.8641 3.53714 13.8649H13.6621C13.9042 13.8641 14.1378 13.7759 14.32 13.6165C14.5021 13.457 14.6205 13.2372 14.6534 12.9974L15.5953 5.93112C15.6045 5.86038 15.5986 5.78849 15.5778 5.72025C15.557 5.65201 15.5218 5.58901 15.4746 5.53549ZM5.69964 11.8649C5.68278 11.8658 5.66588 11.8658 5.64902 11.8649C5.52463 11.8655 5.40448 11.8197 5.31203 11.7365C5.21958 11.6533 5.16145 11.5386 5.14902 11.4149L4.79902 7.91487C4.78576 7.78292 4.82545 7.65111 4.90938 7.54844C4.9933 7.44576 5.11457 7.38063 5.24652 7.36737C5.37846 7.35411 5.51027 7.3938 5.61295 7.47773C5.71562 7.56165 5.78076 7.68292 5.79402 7.81487L6.14402 11.3149C6.15802 11.4467 6.11907 11.5788 6.03573 11.6819C5.9524 11.785 5.8315 11.8509 5.69964 11.8649ZM9.09964 11.3649C9.09964 11.4975 9.04696 11.6247 8.9532 11.7184C8.85943 11.8122 8.73225 11.8649 8.59964 11.8649C8.46703 11.8649 8.33986 11.8122 8.24609 11.7184C8.15232 11.6247 8.09964 11.4975 8.09964 11.3649V7.86487C8.09964 7.73226 8.15232 7.60508 8.24609 7.51131C8.33986 7.41755 8.46703 7.36487 8.59964 7.36487C8.73225 7.36487 8.85943 7.41755 8.9532 7.51131C9.04696 7.60508 9.09964 7.73226 9.09964 7.86487V11.3649ZM6.20152 5.36487L8.59964 2.62424L10.9978 5.36487H6.20152ZM12.3971 7.91487L12.0471 11.4149C12.0348 11.5381 11.9771 11.6523 11.8853 11.7355C11.7935 11.8186 11.6741 11.8647 11.5503 11.8649C11.5334 11.8658 11.5165 11.8658 11.4996 11.8649C11.4343 11.8583 11.3709 11.8389 11.3131 11.8079C11.2552 11.7768 11.2041 11.7346 11.1625 11.6838C11.1209 11.633 11.0898 11.5744 11.0709 11.5116C11.0519 11.4487 11.0456 11.3827 11.0521 11.3174L11.4021 7.81737C11.4154 7.68542 11.4805 7.56415 11.5832 7.48023C11.6859 7.3963 11.8177 7.35661 11.9496 7.36987C12.0816 7.38313 12.2029 7.44826 12.2868 7.55094C12.3707 7.65361 12.4104 7.78542 12.3971 7.91737V7.91487Z" fill="#14161F"/>
</svg>
