<svg width="18" height="17" viewBox="0 0 18 17" fill="none" xmlns="http://www.w3.org/2000/svg">
<path d="M17.0415 16.1876C16.9866 16.2826 16.9077 16.3615 16.8127 16.4164C16.7176 16.4712 16.6098 16.5001 16.5001 16.5001H1.50009C1.39044 16.4999 1.28274 16.471 1.18782 16.4161C1.09289 16.3612 1.01409 16.2823 0.959306 16.1873C0.904527 16.0923 0.875704 15.9845 0.875732 15.8749C0.875761 15.7652 0.904639 15.6575 0.959467 15.5626C2.14931 13.5055 3.9829 12.0305 6.12275 11.3313C5.06429 10.7012 4.24193 9.74105 3.78196 8.59833C3.32199 7.45561 3.24985 6.19349 3.57661 5.0058C3.90337 3.81811 4.61097 2.77051 5.59074 2.0239C6.57051 1.27728 7.76827 0.872925 9.00009 0.872925C10.2319 0.872925 11.4297 1.27728 12.4094 2.0239C13.3892 2.77051 14.0968 3.81811 14.4236 5.0058C14.7503 6.19349 14.6782 7.45561 14.2182 8.59833C13.7583 9.74105 12.9359 10.7012 11.8774 11.3313C14.0173 12.0305 15.8509 13.5055 17.0407 15.5626C17.0957 15.6575 17.1247 15.7652 17.1248 15.8749C17.125 15.9847 17.0962 16.0925 17.0415 16.1876Z" fill="#14161F"/>
</svg>
