<svg width="20" height="20" viewBox="0 0 20 20" fill="none" xmlns="http://www.w3.org/2000/svg">
<path d="M9.99982 1.875C8.59706 1.87469 7.21812 2.23757 5.99721 2.9283C4.7763 3.61904 3.75501 4.6141 3.03277 5.81664C2.31052 7.01918 1.91192 8.38822 1.87575 9.79052C1.83958 11.1928 2.16709 12.5806 2.82638 13.8188L1.93966 16.4789C1.86621 16.6992 1.85556 16.9355 1.90888 17.1615C1.96221 17.3874 2.07741 17.5941 2.24158 17.7582C2.40575 17.9224 2.61239 18.0376 2.83836 18.0909C3.06432 18.1443 3.30067 18.1336 3.52091 18.0602L6.18107 17.1734C7.27073 17.753 8.47811 18.0767 9.71156 18.12C10.945 18.1633 12.1721 17.925 13.2997 17.4232C14.4273 16.9215 15.4258 16.1694 16.2194 15.2241C17.0129 14.2789 17.5807 13.1652 17.8796 11.9678C18.1785 10.7703 18.2007 9.52047 17.9445 8.31315C17.6882 7.10584 17.1603 5.97276 16.4008 4.99993C15.6413 4.02711 14.6701 3.24009 13.561 2.69864C12.4519 2.15718 11.234 1.87551 9.99982 1.875ZM12.4998 11.875H7.49982C7.33406 11.875 7.17509 11.8092 7.05788 11.6919C6.94067 11.5747 6.87482 11.4158 6.87482 11.25C6.87482 11.0842 6.94067 10.9253 7.05788 10.8081C7.17509 10.6908 7.33406 10.625 7.49982 10.625H12.4998C12.6656 10.625 12.8246 10.6908 12.9418 10.8081C13.059 10.9253 13.1248 11.0842 13.1248 11.25C13.1248 11.4158 13.059 11.5747 12.9418 11.6919C12.8246 11.8092 12.6656 11.875 12.4998 11.875ZM12.4998 9.375H7.49982C7.33406 9.375 7.17509 9.30915 7.05788 9.19194C6.94067 9.07473 6.87482 8.91576 6.87482 8.75C6.87482 8.58424 6.94067 8.42527 7.05788 8.30806C7.17509 8.19085 7.33406 8.125 7.49982 8.125H12.4998C12.6656 8.125 12.8246 8.19085 12.9418 8.30806C13.059 8.42527 13.1248 8.58424 13.1248 8.75C13.1248 8.91576 13.059 9.07473 12.9418 9.19194C12.8246 9.30915 12.6656 9.375 12.4998 9.375Z" fill="#14161F"/>
</svg>
