<svg width="24" height="24" viewBox="0 0 24 24" fill="none" xmlns="http://www.w3.org/2000/svg">
<mask id="mask0_3096_15173" style="mask-type:luminance" maskUnits="userSpaceOnUse" x="1" y="1" width="22" height="22">
<path d="M23 1.44043H1V22.5604H23V1.44043Z" fill="white"/>
</mask>
<g mask="url(#mask0_3096_15173)">
<path d="M16.2442 6.45543C15.0923 5.80599 13.1097 7.02039 11.67 9.19575C10.2303 7.02039 8.24768 5.80599 7.09576 6.45543C5.8664 7.14799 6.0468 9.69911 7.49968 12.1543C8.70968 14.2003 10.4213 15.5335 11.67 15.5203C12.9187 15.5335 14.6303 14.2003 15.8403 12.1543C17.2932 9.69911 17.4736 7.14799 16.2442 6.45543ZM1.12936 7.59239C1.36696 4.89519 3.34432 2.88967 6.03624 2.59311C7.45392 2.43647 9.27552 2.32031 11.56 2.32031C14.0882 2.32031 16.0489 2.46199 17.5238 2.64415C19.9517 2.94335 21.8041 4.68663 22.12 7.11279C22.2494 8.10279 22.34 9.29167 22.34 10.6803C22.34 12.069 22.2494 13.2578 22.12 14.2478C21.8041 16.674 19.9517 18.4173 17.5238 18.7165C16.0489 18.8986 14.0882 19.0403 11.56 19.0403C10.739 19.0403 9.97776 19.0254 9.27288 18.999C9.06344 18.991 8.85752 19.057 8.6912 19.1855C7.40816 20.1808 5.3956 21.6601 3.75528 22.5022C3.67872 22.541 3.59512 22.5603 3.50976 22.5603C3.13664 22.5603 2.87088 22.2004 2.98 21.844L3.87936 18.9224C4.00608 18.5106 3.81072 18.0732 3.45432 17.8303C2.14576 16.9371 1.2816 15.4939 1.12936 13.7682C1.05192 12.8803 1 11.8507 1 10.6803C1 9.50991 1.05192 8.48031 1.12936 7.59239Z" fill="#14161F"/>
</g>
</svg>
