<svg width="19" height="14" viewBox="0 0 19 14" fill="none" xmlns="http://www.w3.org/2000/svg">
<path d="M18.9555 5.14063L17.8617 2.40625C17.7689 2.17478 17.6086 1.97653 17.4018 1.83723C17.1949 1.69792 16.951 1.62399 16.7016 1.625H14V1C14 0.83424 13.9342 0.675269 13.8169 0.558058C13.6997 0.440848 13.5408 0.375 13.375 0.375H1.5C1.16848 0.375 0.850537 0.506696 0.616116 0.741116C0.381696 0.975537 0.25 1.29348 0.25 1.625V10.375C0.25 10.7065 0.381696 11.0245 0.616116 11.2589C0.850537 11.4933 1.16848 11.625 1.5 11.625H2.82812C2.96581 12.1628 3.27856 12.6394 3.71707 12.9798C4.15557 13.3202 4.69489 13.5049 5.25 13.5049C5.80511 13.5049 6.34443 13.3202 6.78293 12.9798C7.22144 12.6394 7.53419 12.1628 7.67188 11.625H11.5781C11.7158 12.1628 12.0286 12.6394 12.4671 12.9798C12.9056 13.3202 13.4449 13.5049 14 13.5049C14.5551 13.5049 15.0944 13.3202 15.5329 12.9798C15.9714 12.6394 16.2842 12.1628 16.4219 11.625H17.75C18.0815 11.625 18.3995 11.4933 18.6339 11.2589C18.8683 11.0245 19 10.7065 19 10.375V5.375C19.0001 5.29476 18.985 5.21524 18.9555 5.14063ZM5.25 12.25C5.00277 12.25 4.7611 12.1767 4.55554 12.0393C4.34998 11.902 4.18976 11.7068 4.09515 11.4784C4.00054 11.2499 3.97579 10.9986 4.02402 10.7561C4.07225 10.5137 4.1913 10.2909 4.36612 10.1161C4.54093 9.9413 4.76366 9.82225 5.00614 9.77402C5.24861 9.72579 5.49995 9.75054 5.72835 9.84515C5.95676 9.93976 6.15199 10.1 6.28934 10.3055C6.42669 10.5111 6.5 10.7528 6.5 11C6.5 11.3315 6.3683 11.6495 6.13388 11.8839C5.89946 12.1183 5.58152 12.25 5.25 12.25ZM1.5 6.625V1.625H12.75V6.625H1.5ZM14 12.25C13.7528 12.25 13.5111 12.1767 13.3055 12.0393C13.1 11.902 12.9398 11.7068 12.8452 11.4784C12.7505 11.2499 12.7258 10.9986 12.774 10.7561C12.8222 10.5137 12.9413 10.2909 13.1161 10.1161C13.2909 9.9413 13.5137 9.82225 13.7561 9.77402C13.9986 9.72579 14.2499 9.75054 14.4784 9.84515C14.7068 9.93976 14.902 10.1 15.0393 10.3055C15.1767 10.5111 15.25 10.7528 15.25 11C15.25 11.3315 15.1183 11.6495 14.8839 11.8839C14.6495 12.1183 14.3315 12.25 14 12.25ZM14 4.75V2.875H16.7016L17.4516 4.75H14Z" fill="#14161F"/>
</svg>
